<svg width="62" height="62" viewBox="0 0 62 62" fill="none" xmlns="http://www.w3.org/2000/svg">
<circle cx="31" cy="31" r="30.5" fill="white" stroke="black"/>
<g clip-path="url(#clip0_19_1332)">
<path d="M48.9798 20.5816C48.9931 20.6321 49 20.6842 49 20.7366V28.8789C49 29.0917 48.8889 29.2882 48.7085 29.394L42.032 33.3288V41.1275C42.0321 41.2318 42.0053 41.3343 41.9544 41.4248C41.9035 41.5152 41.8303 41.5903 41.7421 41.6426L27.805 49.8548C27.7731 49.8732 27.7383 49.885 27.7035 49.8978C27.6904 49.9022 27.6782 49.9104 27.6644 49.9141C27.5669 49.9404 27.4645 49.9404 27.3671 49.9141C27.3511 49.9098 27.3366 49.9007 27.3214 49.8948C27.2895 49.8829 27.2561 49.8725 27.2258 49.8548L13.2915 41.6425C13.203 41.5905 13.1294 41.5155 13.0782 41.425C13.027 41.3346 13.0001 41.232 13 41.1275V16.7004C13 16.6468 13.0073 16.5949 13.0203 16.5445C13.0246 16.5274 13.0347 16.5118 13.0406 16.4947C13.0515 16.4636 13.0617 16.4316 13.0776 16.4027C13.0885 16.3834 13.1043 16.3679 13.1174 16.35C13.1342 16.3263 13.1493 16.3018 13.1689 16.2809C13.1856 16.264 13.2074 16.2513 13.2263 16.2365C13.2474 16.2186 13.2661 16.1993 13.29 16.1852H13.2907L20.2581 12.0792C20.3463 12.0272 20.4463 11.9999 20.5481 11.9999C20.6499 11.9999 20.7499 12.0272 20.8382 12.0792L27.8056 16.1852H27.807C27.8302 16.2002 27.8499 16.2186 27.8708 16.2357C27.8897 16.2506 27.9108 16.264 27.9273 16.2804C27.9477 16.3018 27.9622 16.3264 27.9795 16.35C27.9919 16.3679 28.0086 16.3834 28.0188 16.4027C28.0353 16.4324 28.0448 16.4636 28.0564 16.4948C28.0622 16.5118 28.0723 16.5274 28.0767 16.5452C28.09 16.5957 28.0969 16.648 28.0971 16.7004V31.9571L33.9029 28.5352V20.7359C33.9029 20.684 33.9102 20.6312 33.9233 20.5816C33.9284 20.5637 33.9378 20.5482 33.9436 20.5312C33.9552 20.4999 33.9654 20.4678 33.9812 20.4391C33.9921 20.4198 34.008 20.4042 34.0205 20.3864C34.0378 20.3626 34.0523 20.3382 34.0725 20.3173C34.0894 20.3003 34.1103 20.2876 34.1292 20.2728C34.151 20.255 34.1698 20.2357 34.193 20.2216H34.1937L41.1618 16.1156C41.25 16.0635 41.3501 16.0361 41.4519 16.0361C41.5537 16.0361 41.6537 16.0635 41.7419 16.1156L48.7093 20.2216C48.7339 20.2364 48.7528 20.255 48.7746 20.2719C48.7926 20.2869 48.8137 20.3003 48.8304 20.3166C48.8507 20.3382 48.8651 20.3626 48.8824 20.3864C48.8957 20.4042 48.9115 20.4198 48.9218 20.4391C48.9384 20.4678 48.9478 20.4999 48.9594 20.5312C48.966 20.5482 48.9754 20.5637 48.9798 20.5816ZM47.8386 28.5354V21.7645L45.4003 23.2011L42.0319 25.1863V31.9572L47.8393 28.5354H47.8386ZM40.8712 40.7839V34.0082L37.5578 35.9452L28.0964 41.4725V48.3116L40.8712 40.7836V40.7839ZM14.1614 17.7281V40.7839L26.9348 48.3111V41.4732L20.2619 37.6076L20.2598 37.6061L20.257 37.6047C20.2345 37.5913 20.2155 37.572 20.1945 37.5558C20.1762 37.5408 20.1553 37.529 20.1394 37.5126L20.138 37.5104C20.1191 37.4918 20.1061 37.4688 20.0902 37.4481C20.0755 37.4279 20.0582 37.411 20.0466 37.3902L20.0459 37.3879C20.0328 37.3658 20.0248 37.339 20.0154 37.3138C20.0059 37.2915 19.9937 37.2706 19.9878 37.247V37.2463C19.9806 37.2181 19.9792 37.1883 19.9763 37.1593C19.9735 37.1372 19.9675 37.1149 19.9675 37.0926V21.1501L16.5997 19.164L14.1614 17.729V17.7281ZM20.5489 13.2799L14.7436 16.7004L20.5475 20.1207L26.3519 16.6995L20.5475 13.2799H20.5489ZM23.5678 34.6259L26.9355 32.6415V17.7281L24.4975 19.1649L21.1288 21.15V36.0632L23.5678 34.6259ZM41.4518 17.3163L35.6474 20.7366L41.4518 24.157L47.2555 20.7359L41.452 17.3163H41.4518ZM40.871 25.1863L37.5026 23.2011L35.0645 21.7645V28.5354L38.4322 30.5199L40.8712 31.9572V25.1863H40.871ZM27.5149 40.4448L36.0287 35.4696L40.2846 32.9835L34.4844 29.5654L27.8063 33.5007L21.7197 37.0874L27.5149 40.4448Z" fill="#FF2D20"/>
</g>
<defs>
<clipPath id="clip0_19_1332">
<rect width="36" height="38" fill="white" transform="translate(13 12)"/>
</clipPath>
</defs>
</svg>
